<svg xmlns="http://www.w3.org/2000/svg" xmlns:xlink="http://www.w3.org/1999/xlink" width="500" zoomAndPan="magnify" viewBox="0 0 375 374.999991" height="500" preserveAspectRatio="xMidYMid meet" version="1.0"><defs><g/><clipPath id="954c43588b"><path d="M 74.789062 55.785156 L 300 55.785156 L 300 212.992188 L 74.789062 212.992188 Z M 74.789062 55.785156 " clip-rule="nonzero"/></clipPath><clipPath id="e14bd2c028"><path d="M 254 55.785156 L 300 55.785156 L 300 102 L 254 102 Z M 254 55.785156 " clip-rule="nonzero"/></clipPath></defs><g clip-path="url(#954c43588b)"><path fill="#28afb0" d="M 281.101562 123.15625 C 290.058594 124.90625 298.867188 132.59375 299.546875 144.167969 C 300.152344 154.402344 293.953125 163.507812 284.496094 166.875 C 282.039062 167.746094 279.503906 168.136719 276.886719 168.171875 C 273.15625 168.230469 269.566406 169.015625 266.316406 170.910156 C 259.390625 174.964844 255.476562 180.933594 254.925781 189.027344 C 254.78125 191.207031 254.667969 193.421875 254.175781 195.535156 C 251.589844 206.566406 241.601562 213.261719 231.445312 212.949219 C 220.097656 212.605469 210.546875 203.699219 209.621094 192.378906 C 209.507812 190.988281 209.421875 189.597656 209.316406 188.214844 C 208.492188 177.550781 199.757812 169.679688 191.035156 168.550781 C 189.6875 168.375 188.332031 168.253906 186.976562 168.175781 C 183.277344 168.242188 179.714844 169.03125 176.496094 170.914062 C 169.566406 174.96875 165.65625 180.941406 165.105469 189.035156 C 164.957031 191.210938 164.847656 193.429688 164.351562 195.539062 C 161.761719 206.566406 151.769531 213.261719 141.617188 212.949219 C 130.265625 212.605469 120.71875 203.699219 119.792969 192.378906 C 119.679688 190.988281 119.589844 189.597656 119.484375 188.214844 C 118.664062 177.550781 109.929688 169.679688 101.207031 168.550781 C 99.636719 168.347656 98.046875 168.210938 96.464844 168.136719 C 86.609375 167.675781 78.191406 160.878906 75.640625 151.328125 C 74.988281 148.894531 74.894531 146.421875 74.894531 143.933594 C 74.894531 134.816406 74.828125 101.574219 74.78125 78.605469 C 74.757812 65.996094 85.03125 55.78125 97.648438 55.886719 C 110.078125 55.988281 120.113281 66.082031 120.136719 78.511719 C 120.183594 101.335938 120.261719 134.613281 120.285156 143.703125 C 120.285156 145.785156 120.320312 147.914062 120.730469 149.941406 C 122.757812 160.085938 131.6875 167.417969 141.96875 167.53125 C 152.527344 167.640625 161.5625 160.585938 163.835938 150.351562 C 164.222656 148.613281 164.265625 146.800781 164.460938 145.023438 C 164.570312 143.96875 164.59375 142.894531 164.730469 141.84375 C 164.71875 130.523438 164.664062 100.074219 164.617188 78.601562 C 164.59375 65.988281 174.863281 55.777344 187.480469 55.882812 C 199.910156 55.980469 209.949219 66.078125 209.972656 78.507812 C 210.019531 101.328125 210.09375 134.605469 210.117188 143.699219 C 210.117188 145.78125 210.152344 147.910156 210.5625 149.933594 C 212.59375 160.082031 221.519531 167.414062 231.804688 167.523438 C 242.363281 167.636719 251.394531 160.578125 253.671875 150.34375 C 254.058594 148.609375 254.101562 146.796875 254.292969 145.019531 C 254.441406 143.632812 254.433594 142.21875 254.734375 140.871094 C 257.777344 127 270.910156 121.15625 281.117188 123.152344 Z M 281.101562 123.15625 " fill-opacity="1" fill-rule="nonzero"/></g><g clip-path="url(#e14bd2c028)"><path fill="#28afb0" d="M 277.476562 101.265625 C 265.121094 101.527344 254.421875 91.679688 254.300781 78.964844 C 254 66.839844 263.539062 56.246094 276.402344 55.886719 C 288.976562 55.542969 299.414062 65.507812 299.589844 78.1875 C 299.78125 91.960938 288.695312 101.019531 277.46875 101.265625 Z M 277.476562 101.265625 " fill-opacity="1" fill-rule="nonzero"/></g><g fill="#28afb0" fill-opacity="1"><g transform="translate(118.005718, 313.861529)"><g><path d="M 0.71875 -12.234375 L 9.484375 -12.234375 L 9.484375 -10.546875 L 6.046875 -10.546875 L 6.046875 0 L 4.140625 0 L 4.140625 -10.546875 L 0.71875 -10.546875 Z M 0.71875 -12.234375 "/></g></g></g><g fill="#28afb0" fill-opacity="1"><g transform="translate(132.31447, 313.861529)"><g><path d="M 1.53125 0 L 1.53125 -12.234375 L 8.921875 -12.234375 L 8.921875 -10.5625 L 3.390625 -10.5625 L 3.390625 -7.109375 L 8.328125 -7.109375 L 8.328125 -5.453125 L 3.390625 -5.453125 L 3.390625 -1.671875 L 8.921875 -1.671875 L 8.921875 0 Z M 1.53125 0 "/></g></g></g><g fill="#28afb0" fill-opacity="1"><g transform="translate(146.623223, 313.861529)"><g><path d="M 5.203125 -12.40625 C 6.328125 -12.40625 7.234375 -12.09375 7.921875 -11.46875 C 8.617188 -10.84375 9.015625 -9.992188 9.109375 -8.921875 L 7.234375 -8.921875 C 7.179688 -9.492188 6.972656 -9.9375 6.609375 -10.25 C 6.253906 -10.570312 5.785156 -10.734375 5.203125 -10.734375 C 4.566406 -10.734375 4.0625 -10.550781 3.6875 -10.1875 C 3.320312 -9.820312 3.140625 -9.328125 3.140625 -8.703125 L 3.140625 -3.53125 C 3.140625 -2.894531 3.316406 -2.394531 3.671875 -2.03125 C 4.035156 -1.675781 4.539062 -1.5 5.1875 -1.5 C 5.78125 -1.5 6.253906 -1.660156 6.609375 -1.984375 C 6.972656 -2.304688 7.179688 -2.75 7.234375 -3.3125 L 9.109375 -3.3125 C 9.054688 -2.78125 8.929688 -2.296875 8.734375 -1.859375 C 8.535156 -1.429688 8.265625 -1.066406 7.921875 -0.765625 C 7.585938 -0.472656 7.1875 -0.242188 6.71875 -0.078125 C 6.257812 0.0859375 5.75 0.171875 5.1875 0.171875 C 4.59375 0.171875 4.054688 0.0820312 3.578125 -0.09375 C 3.097656 -0.269531 2.6875 -0.519531 2.34375 -0.84375 C 2 -1.164062 1.734375 -1.554688 1.546875 -2.015625 C 1.367188 -2.472656 1.28125 -2.976562 1.28125 -3.53125 L 1.28125 -8.703125 C 1.28125 -9.265625 1.367188 -9.769531 1.546875 -10.21875 C 1.734375 -10.675781 2 -11.066406 2.34375 -11.390625 C 2.6875 -11.710938 3.097656 -11.960938 3.578125 -12.140625 C 4.054688 -12.316406 4.597656 -12.40625 5.203125 -12.40625 Z M 5.203125 -12.40625 "/></g></g></g><g fill="#28afb0" fill-opacity="1"><g transform="translate(160.931977, 313.861529)"><g><path d="M 3.265625 -12.234375 L 3.265625 -7.21875 L 6.953125 -7.21875 L 6.953125 -12.234375 L 8.796875 -12.234375 L 8.796875 0 L 6.953125 0 L 6.953125 -5.5 L 3.265625 -5.5 L 3.265625 0 L 1.390625 0 L 1.390625 -12.234375 Z M 3.265625 -12.234375 "/></g></g></g><g fill="#28afb0" fill-opacity="1"><g transform="translate(175.240729, 313.861529)"><g><path d="M 3.625 -12.234375 L 6.671875 -4.0625 C 6.753906 -3.863281 6.828125 -3.640625 6.890625 -3.390625 C 6.953125 -3.140625 7.007812 -2.90625 7.0625 -2.6875 C 7.125 -2.414062 7.179688 -2.144531 7.234375 -1.875 L 7.40625 -1.875 C 7.40625 -1.875 7.394531 -1.945312 7.375 -2.09375 C 7.363281 -2.238281 7.34375 -2.425781 7.3125 -2.65625 C 7.28125 -2.894531 7.253906 -3.160156 7.234375 -3.453125 C 7.210938 -3.753906 7.203125 -4.050781 7.203125 -4.34375 L 7.203125 -12.234375 L 8.90625 -12.234375 L 8.90625 0 L 6.59375 0 L 3.5625 -8.1875 C 3.476562 -8.414062 3.398438 -8.65625 3.328125 -8.90625 C 3.265625 -9.164062 3.203125 -9.40625 3.140625 -9.625 C 3.085938 -9.875 3.035156 -10.125 2.984375 -10.375 L 2.8125 -10.375 C 2.851562 -10.132812 2.882812 -9.882812 2.90625 -9.625 C 2.925781 -9.40625 2.941406 -9.144531 2.953125 -8.84375 C 2.972656 -8.550781 2.984375 -8.242188 2.984375 -7.921875 L 2.984375 0 L 1.296875 0 L 1.296875 -12.234375 Z M 3.625 -12.234375 "/></g></g></g><g fill="#28afb0" fill-opacity="1"><g transform="translate(189.54948, 313.861529)"><g><path d="M 3.046875 -3.53125 C 3.046875 -2.90625 3.226562 -2.40625 3.59375 -2.03125 C 3.96875 -1.664062 4.46875 -1.484375 5.09375 -1.484375 C 5.71875 -1.484375 6.21875 -1.664062 6.59375 -2.03125 C 6.96875 -2.40625 7.15625 -2.90625 7.15625 -3.53125 L 7.15625 -8.703125 C 7.15625 -9.328125 6.96875 -9.828125 6.59375 -10.203125 C 6.21875 -10.578125 5.71875 -10.765625 5.09375 -10.765625 C 4.46875 -10.765625 3.96875 -10.578125 3.59375 -10.203125 C 3.226562 -9.828125 3.046875 -9.328125 3.046875 -8.703125 Z M 1.171875 -8.703125 C 1.171875 -9.265625 1.265625 -9.769531 1.453125 -10.21875 C 1.640625 -10.675781 1.898438 -11.066406 2.234375 -11.390625 C 2.578125 -11.710938 2.988281 -11.960938 3.46875 -12.140625 C 3.945312 -12.316406 4.488281 -12.40625 5.09375 -12.40625 C 5.695312 -12.40625 6.238281 -12.316406 6.71875 -12.140625 C 7.195312 -11.960938 7.601562 -11.710938 7.9375 -11.390625 C 8.28125 -11.066406 8.546875 -10.675781 8.734375 -10.21875 C 8.921875 -9.769531 9.015625 -9.265625 9.015625 -8.703125 L 9.015625 -3.53125 C 9.015625 -2.976562 8.921875 -2.472656 8.734375 -2.015625 C 8.546875 -1.554688 8.28125 -1.164062 7.9375 -0.84375 C 7.59375 -0.519531 7.179688 -0.269531 6.703125 -0.09375 C 6.222656 0.0820312 5.6875 0.171875 5.09375 0.171875 C 4.488281 0.171875 3.945312 0.0820312 3.46875 -0.09375 C 2.988281 -0.269531 2.578125 -0.519531 2.234375 -0.84375 C 1.898438 -1.164062 1.640625 -1.554688 1.453125 -2.015625 C 1.265625 -2.472656 1.171875 -2.976562 1.171875 -3.53125 Z M 1.171875 -8.703125 "/></g></g></g><g fill="#28afb0" fill-opacity="1"><g transform="translate(203.858236, 313.861529)"><g><path d="M 3.59375 -12.234375 L 3.59375 -1.71875 L 9.125 -1.71875 L 9.125 0 L 1.734375 0 L 1.734375 -12.234375 Z M 3.59375 -12.234375 "/></g></g></g><g fill="#28afb0" fill-opacity="1"><g transform="translate(218.166988, 313.861529)"><g><path d="M 3.046875 -3.53125 C 3.046875 -2.90625 3.226562 -2.40625 3.59375 -2.03125 C 3.96875 -1.664062 4.46875 -1.484375 5.09375 -1.484375 C 5.71875 -1.484375 6.21875 -1.664062 6.59375 -2.03125 C 6.96875 -2.40625 7.15625 -2.90625 7.15625 -3.53125 L 7.15625 -8.703125 C 7.15625 -9.328125 6.96875 -9.828125 6.59375 -10.203125 C 6.21875 -10.578125 5.71875 -10.765625 5.09375 -10.765625 C 4.46875 -10.765625 3.96875 -10.578125 3.59375 -10.203125 C 3.226562 -9.828125 3.046875 -9.328125 3.046875 -8.703125 Z M 1.171875 -8.703125 C 1.171875 -9.265625 1.265625 -9.769531 1.453125 -10.21875 C 1.640625 -10.675781 1.898438 -11.066406 2.234375 -11.390625 C 2.578125 -11.710938 2.988281 -11.960938 3.46875 -12.140625 C 3.945312 -12.316406 4.488281 -12.40625 5.09375 -12.40625 C 5.695312 -12.40625 6.238281 -12.316406 6.71875 -12.140625 C 7.195312 -11.960938 7.601562 -11.710938 7.9375 -11.390625 C 8.28125 -11.066406 8.546875 -10.675781 8.734375 -10.21875 C 8.921875 -9.769531 9.015625 -9.265625 9.015625 -8.703125 L 9.015625 -3.53125 C 9.015625 -2.976562 8.921875 -2.472656 8.734375 -2.015625 C 8.546875 -1.554688 8.28125 -1.164062 7.9375 -0.84375 C 7.59375 -0.519531 7.179688 -0.269531 6.703125 -0.09375 C 6.222656 0.0820312 5.6875 0.171875 5.09375 0.171875 C 4.488281 0.171875 3.945312 0.0820312 3.46875 -0.09375 C 2.988281 -0.269531 2.578125 -0.519531 2.234375 -0.84375 C 1.898438 -1.164062 1.640625 -1.554688 1.453125 -2.015625 C 1.265625 -2.472656 1.171875 -2.976562 1.171875 -3.53125 Z M 1.171875 -8.703125 "/></g></g></g><g fill="#28afb0" fill-opacity="1"><g transform="translate(232.47574, 313.861529)"><g><path d="M 4.859375 -6.453125 L 9.015625 -6.453125 L 9.015625 -3.53125 C 9.015625 -2.96875 8.921875 -2.457031 8.734375 -2 C 8.546875 -1.550781 8.28125 -1.164062 7.9375 -0.84375 C 7.601562 -0.519531 7.195312 -0.269531 6.71875 -0.09375 C 6.238281 0.0820312 5.695312 0.171875 5.09375 0.171875 C 4.507812 0.171875 3.972656 0.0820312 3.484375 -0.09375 C 2.992188 -0.269531 2.578125 -0.519531 2.234375 -0.84375 C 1.898438 -1.164062 1.640625 -1.554688 1.453125 -2.015625 C 1.265625 -2.472656 1.171875 -2.976562 1.171875 -3.53125 L 1.171875 -8.703125 C 1.171875 -9.253906 1.265625 -9.753906 1.453125 -10.203125 C 1.640625 -10.648438 1.90625 -11.035156 2.25 -11.359375 C 2.59375 -11.679688 3.003906 -11.925781 3.484375 -12.09375 C 3.972656 -12.269531 4.507812 -12.359375 5.09375 -12.359375 C 6.195312 -12.359375 7.09375 -12.082031 7.78125 -11.53125 C 8.46875 -10.976562 8.894531 -10.1875 9.0625 -9.15625 L 7.1875 -9.15625 C 7.09375 -9.632812 6.859375 -10.007812 6.484375 -10.28125 C 6.117188 -10.5625 5.65625 -10.703125 5.09375 -10.703125 C 4.457031 -10.703125 3.957031 -10.519531 3.59375 -10.15625 C 3.226562 -9.800781 3.046875 -9.316406 3.046875 -8.703125 L 3.046875 -3.53125 C 3.046875 -2.882812 3.226562 -2.378906 3.59375 -2.015625 C 3.957031 -1.660156 4.457031 -1.484375 5.09375 -1.484375 C 5.726562 -1.484375 6.226562 -1.660156 6.59375 -2.015625 C 6.96875 -2.378906 7.15625 -2.882812 7.15625 -3.53125 L 7.15625 -4.828125 L 4.859375 -4.828125 Z M 4.859375 -6.453125 "/></g></g></g><g fill="#28afb0" fill-opacity="1"><g transform="translate(246.784491, 313.861529)"><g><path d="M 0.421875 -12.234375 L 2.390625 -12.234375 L 4.671875 -7.203125 C 4.753906 -7.035156 4.816406 -6.863281 4.859375 -6.6875 C 4.910156 -6.519531 4.957031 -6.375 5 -6.25 C 5.039062 -6.09375 5.070312 -5.941406 5.09375 -5.796875 L 5.1875 -5.796875 C 5.207031 -5.941406 5.238281 -6.09375 5.28125 -6.25 C 5.3125 -6.375 5.351562 -6.519531 5.40625 -6.6875 C 5.457031 -6.863281 5.519531 -7.035156 5.59375 -7.203125 L 7.796875 -12.234375 L 9.765625 -12.234375 L 6.03125 -4.25 L 6.03125 0 L 4.15625 0 L 4.15625 -4.25 Z M 0.421875 -12.234375 "/></g></g></g><g fill="#000000" fill-opacity="1"><g transform="translate(79.383958, 282.286026)"><g><path d="M 18.4375 0.453125 C 16.507812 0.453125 15.1875 -0.566406 14.46875 -2.609375 L 2.609375 -36.140625 C 2.191406 -37.347656 2.273438 -38.367188 2.859375 -39.203125 C 3.453125 -40.035156 4.445312 -40.453125 5.84375 -40.453125 C 6.863281 -40.453125 7.65625 -40.210938 8.21875 -39.734375 C 8.789062 -39.265625 9.25 -38.519531 9.59375 -37.5 L 18.671875 -10.5 L 28.203125 -37.4375 C 28.921875 -39.445312 30.128906 -40.453125 31.828125 -40.453125 C 32.734375 -40.453125 33.453125 -40.203125 33.984375 -39.703125 C 34.515625 -39.210938 34.96875 -38.441406 35.34375 -37.390625 L 44.703125 -10.09375 L 54.0625 -37.5 C 54.40625 -38.476562 54.859375 -39.210938 55.421875 -39.703125 C 55.992188 -40.203125 56.769531 -40.453125 57.75 -40.453125 C 58.96875 -40.453125 59.859375 -40.035156 60.421875 -39.203125 C 60.984375 -38.367188 61.0625 -37.347656 60.65625 -36.140625 L 48.671875 -2.546875 C 48.296875 -1.523438 47.804688 -0.769531 47.203125 -0.28125 C 46.597656 0.207031 45.785156 0.453125 44.765625 0.453125 C 43.742188 0.453125 42.929688 0.207031 42.328125 -0.28125 C 41.722656 -0.769531 41.226562 -1.546875 40.84375 -2.609375 L 31.59375 -28.875 L 22.296875 -2.546875 C 21.921875 -1.523438 21.4375 -0.769531 20.84375 -0.28125 C 20.257812 0.207031 19.457031 0.453125 18.4375 0.453125 Z M 18.4375 0.453125 "/></g></g></g><g fill="#000000" fill-opacity="1"><g transform="translate(145.34821, 282.286026)"><g><path d="M 8.21875 0 C 5.65625 0 4.375 -1.285156 4.375 -3.859375 L 4.375 -36.140625 C 4.375 -38.710938 5.65625 -40 8.21875 -40 L 21.84375 -40 C 26.039062 -40 29.289062 -39.082031 31.59375 -37.25 C 33.90625 -35.414062 35.0625 -32.867188 35.0625 -29.609375 C 35.0625 -27.453125 34.507812 -25.597656 33.40625 -24.046875 C 32.3125 -22.503906 30.800781 -21.375 28.875 -20.65625 C 31.144531 -20.007812 32.910156 -18.878906 34.171875 -17.265625 C 35.441406 -15.660156 36.078125 -13.628906 36.078125 -11.171875 C 36.078125 -7.617188 34.875 -4.867188 32.46875 -2.921875 C 30.070312 -0.972656 26.738281 0 22.46875 0 Z M 11.34375 -23.03125 L 20.59375 -23.03125 C 25.550781 -23.03125 28.03125 -24.941406 28.03125 -28.765625 C 28.03125 -32.585938 25.550781 -34.5 20.59375 -34.5 L 11.34375 -34.5 Z M 11.34375 -5.5 L 21.5625 -5.5 C 26.550781 -5.5 29.046875 -7.503906 29.046875 -11.515625 C 29.046875 -15.523438 26.550781 -17.53125 21.5625 -17.53125 L 11.34375 -17.53125 Z M 11.34375 -5.5 "/></g></g></g><g fill="#000000" fill-opacity="1"><g transform="translate(187.207361, 282.286026)"><g><path d="M 18.15625 0.5625 C 15.625 0.5625 13.15625 0.28125 10.75 -0.28125 C 8.351562 -0.851562 6.265625 -1.707031 4.484375 -2.84375 C 3.609375 -3.40625 3.078125 -4.101562 2.890625 -4.9375 C 2.703125 -5.769531 2.769531 -6.550781 3.09375 -7.28125 C 3.414062 -8.019531 3.925781 -8.53125 4.625 -8.8125 C 5.320312 -9.101562 6.125 -8.960938 7.03125 -8.390625 C 8.695312 -7.410156 10.457031 -6.691406 12.3125 -6.234375 C 14.164062 -5.785156 16.113281 -5.5625 18.15625 -5.5625 C 21.144531 -5.5625 23.316406 -6.0625 24.671875 -7.0625 C 26.035156 -8.0625 26.71875 -9.359375 26.71875 -10.953125 C 26.71875 -12.273438 26.234375 -13.3125 25.265625 -14.0625 C 24.304688 -14.820312 22.65625 -15.445312 20.3125 -15.9375 L 14.0625 -17.25 C 6.957031 -18.757812 3.40625 -22.410156 3.40625 -28.203125 C 3.40625 -30.691406 4.066406 -32.863281 5.390625 -34.71875 C 6.710938 -36.570312 8.546875 -38.007812 10.890625 -39.03125 C 13.234375 -40.050781 15.9375 -40.5625 19 -40.5625 C 21.269531 -40.5625 23.425781 -40.273438 25.46875 -39.703125 C 27.507812 -39.140625 29.347656 -38.3125 30.984375 -37.21875 C 31.734375 -36.6875 32.179688 -36.03125 32.328125 -35.25 C 32.484375 -34.476562 32.390625 -33.757812 32.046875 -33.09375 C 31.710938 -32.4375 31.175781 -31.984375 30.4375 -31.734375 C 29.695312 -31.492188 28.835938 -31.65625 27.859375 -32.21875 C 26.453125 -33.019531 25.03125 -33.585938 23.59375 -33.921875 C 22.164062 -34.265625 20.617188 -34.4375 18.953125 -34.4375 C 16.335938 -34.4375 14.289062 -33.882812 12.8125 -32.78125 C 11.34375 -31.6875 10.609375 -30.253906 10.609375 -28.484375 C 10.609375 -27.117188 11.0625 -26.03125 11.96875 -25.21875 C 12.875 -24.40625 14.425781 -23.769531 16.625 -23.3125 L 22.8125 -22.015625 C 26.550781 -21.222656 29.335938 -19.972656 31.171875 -18.265625 C 33.003906 -16.566406 33.921875 -14.296875 33.921875 -11.453125 C 33.921875 -9.078125 33.273438 -6.976562 31.984375 -5.15625 C 30.703125 -3.34375 28.878906 -1.9375 26.515625 -0.9375 C 24.160156 0.0625 21.375 0.5625 18.15625 0.5625 Z M 18.15625 0.5625 "/></g></g></g><g fill="#000000" fill-opacity="1"><g transform="translate(225.833584, 282.286026)"><g><path d="M 8.0625 0 C 5.601562 0 4.375 -1.25 4.375 -3.75 L 4.375 -36.484375 C 4.375 -38.941406 5.582031 -40.171875 8 -40.171875 C 10.414062 -40.171875 11.625 -38.941406 11.625 -36.484375 L 11.625 -6.1875 L 28.078125 -6.1875 C 30.203125 -6.1875 31.265625 -5.164062 31.265625 -3.125 C 31.265625 -1.039062 30.203125 0 28.078125 0 Z M 8.0625 0 "/></g></g></g><g fill="#000000" fill-opacity="1"><g transform="translate(260.546268, 282.286026)"><g><path d="M 17.53125 0.453125 C 15.113281 0.453125 13.90625 -0.8125 13.90625 -3.34375 L 13.90625 -18.375 L 1.765625 -35.453125 C 1.265625 -36.140625 1.039062 -36.867188 1.09375 -37.640625 C 1.15625 -38.421875 1.46875 -39.082031 2.03125 -39.625 C 2.601562 -40.175781 3.398438 -40.453125 4.421875 -40.453125 C 5.898438 -40.453125 7.1875 -39.675781 8.28125 -38.125 L 17.640625 -24.84375 L 27.0625 -38.125 C 27.664062 -38.957031 28.25 -39.550781 28.8125 -39.90625 C 29.382812 -40.269531 30.085938 -40.453125 30.921875 -40.453125 C 32.398438 -40.453125 33.375 -39.910156 33.84375 -38.828125 C 34.3125 -37.753906 34.113281 -36.613281 33.25 -35.40625 L 21.15625 -18.328125 L 21.15625 -3.34375 C 21.15625 -0.8125 19.945312 0.453125 17.53125 0.453125 Z M 17.53125 0.453125 "/></g></g></g></svg>