<svg xmlns="http://www.w3.org/2000/svg" xmlns:xlink="http://www.w3.org/1999/xlink" width="500" zoomAndPan="magnify" viewBox="0 0 375 374.999991" height="500" preserveAspectRatio="xMidYMid meet" version="1.0"><defs><g/><clipPath id="2dc247e050"><path d="M 74.789062 59.847656 L 300 59.847656 L 300 217.054688 L 74.789062 217.054688 Z M 74.789062 59.847656 " clip-rule="nonzero"/></clipPath><clipPath id="be6d075d36"><path d="M 254 59.847656 L 300 59.847656 L 300 106 L 254 106 Z M 254 59.847656 " clip-rule="nonzero"/></clipPath></defs><g clip-path="url(#2dc247e050)"><path fill="#28afb0" d="M 281.101562 127.21875 C 290.058594 128.96875 298.867188 136.65625 299.546875 148.230469 C 300.152344 158.464844 293.953125 167.570312 284.496094 170.9375 C 282.039062 171.8125 279.503906 172.199219 276.886719 172.234375 C 273.15625 172.292969 269.566406 173.078125 266.316406 174.972656 C 259.390625 179.027344 255.476562 184.996094 254.925781 193.09375 C 254.78125 195.269531 254.667969 197.484375 254.175781 199.597656 C 251.589844 210.628906 241.601562 217.324219 231.445312 217.011719 C 220.097656 216.667969 210.546875 207.761719 209.621094 196.441406 C 209.507812 195.050781 209.421875 193.660156 209.316406 192.277344 C 208.492188 181.613281 199.757812 173.742188 191.035156 172.613281 C 189.6875 172.4375 188.332031 172.316406 186.976562 172.238281 C 183.277344 172.304688 179.714844 173.097656 176.496094 174.980469 C 169.566406 179.03125 165.65625 185.003906 165.105469 193.097656 C 164.957031 195.273438 164.847656 197.492188 164.351562 199.601562 C 161.761719 210.628906 151.769531 217.324219 141.617188 217.011719 C 130.265625 216.667969 120.71875 207.761719 119.792969 196.441406 C 119.679688 195.050781 119.589844 193.660156 119.484375 192.277344 C 118.664062 181.613281 109.929688 173.742188 101.207031 172.613281 C 99.636719 172.410156 98.046875 172.273438 96.464844 172.199219 C 86.609375 171.742188 78.191406 164.941406 75.640625 155.394531 C 74.988281 152.957031 74.894531 150.484375 74.894531 147.996094 C 74.894531 138.878906 74.828125 105.640625 74.78125 82.667969 C 74.757812 70.058594 85.03125 59.84375 97.648438 59.949219 C 110.078125 60.050781 120.113281 70.144531 120.136719 82.574219 C 120.183594 105.398438 120.261719 138.675781 120.285156 147.765625 C 120.285156 149.851562 120.320312 151.980469 120.730469 154.003906 C 122.757812 164.152344 131.6875 171.484375 141.96875 171.59375 C 152.527344 171.707031 161.5625 164.648438 163.835938 154.414062 C 164.222656 152.675781 164.265625 150.863281 164.460938 149.085938 C 164.570312 148.03125 164.59375 146.957031 164.730469 145.90625 C 164.71875 134.585938 164.664062 104.136719 164.617188 82.664062 C 164.59375 70.050781 174.863281 59.839844 187.480469 59.945312 C 199.910156 60.042969 209.949219 70.140625 209.972656 82.570312 C 210.019531 105.394531 210.09375 138.667969 210.117188 147.761719 C 210.117188 149.84375 210.152344 151.972656 210.5625 153.996094 C 212.59375 164.144531 221.519531 171.476562 231.804688 171.589844 C 242.363281 171.699219 251.394531 164.644531 253.671875 154.40625 C 254.058594 152.671875 254.101562 150.859375 254.292969 149.082031 C 254.441406 147.695312 254.433594 146.285156 254.734375 144.933594 C 257.777344 131.0625 270.910156 125.21875 281.117188 127.214844 Z M 281.101562 127.21875 " fill-opacity="1" fill-rule="nonzero"/></g><g clip-path="url(#be6d075d36)"><path fill="#28afb0" d="M 277.476562 105.328125 C 265.121094 105.59375 254.421875 95.742188 254.300781 83.027344 C 254 70.902344 263.539062 60.308594 276.402344 59.949219 C 288.976562 59.605469 299.414062 69.570312 299.589844 82.253906 C 299.78125 96.023438 288.695312 105.082031 277.46875 105.328125 Z M 277.476562 105.328125 " fill-opacity="1" fill-rule="nonzero"/></g><g fill="#000000" fill-opacity="1"><g transform="translate(79.383958, 286.349093)"><g><path d="M 18.4375 0.453125 C 16.507812 0.453125 15.1875 -0.566406 14.46875 -2.609375 L 2.609375 -36.140625 C 2.191406 -37.347656 2.273438 -38.367188 2.859375 -39.203125 C 3.453125 -40.035156 4.445312 -40.453125 5.84375 -40.453125 C 6.863281 -40.453125 7.65625 -40.210938 8.21875 -39.734375 C 8.789062 -39.265625 9.25 -38.519531 9.59375 -37.5 L 18.671875 -10.5 L 28.203125 -37.4375 C 28.921875 -39.445312 30.128906 -40.453125 31.828125 -40.453125 C 32.734375 -40.453125 33.453125 -40.203125 33.984375 -39.703125 C 34.515625 -39.210938 34.96875 -38.441406 35.34375 -37.390625 L 44.703125 -10.09375 L 54.0625 -37.5 C 54.40625 -38.476562 54.859375 -39.210938 55.421875 -39.703125 C 55.992188 -40.203125 56.769531 -40.453125 57.75 -40.453125 C 58.96875 -40.453125 59.859375 -40.035156 60.421875 -39.203125 C 60.984375 -38.367188 61.0625 -37.347656 60.65625 -36.140625 L 48.671875 -2.546875 C 48.296875 -1.523438 47.804688 -0.769531 47.203125 -0.28125 C 46.597656 0.207031 45.785156 0.453125 44.765625 0.453125 C 43.742188 0.453125 42.929688 0.207031 42.328125 -0.28125 C 41.722656 -0.769531 41.226562 -1.546875 40.84375 -2.609375 L 31.59375 -28.875 L 22.296875 -2.546875 C 21.921875 -1.523438 21.4375 -0.769531 20.84375 -0.28125 C 20.257812 0.207031 19.457031 0.453125 18.4375 0.453125 Z M 18.4375 0.453125 "/></g></g></g><g fill="#000000" fill-opacity="1"><g transform="translate(145.34821, 286.349093)"><g><path d="M 8.21875 0 C 5.65625 0 4.375 -1.285156 4.375 -3.859375 L 4.375 -36.140625 C 4.375 -38.710938 5.65625 -40 8.21875 -40 L 21.84375 -40 C 26.039062 -40 29.289062 -39.082031 31.59375 -37.25 C 33.90625 -35.414062 35.0625 -32.867188 35.0625 -29.609375 C 35.0625 -27.453125 34.507812 -25.597656 33.40625 -24.046875 C 32.3125 -22.503906 30.800781 -21.375 28.875 -20.65625 C 31.144531 -20.007812 32.910156 -18.878906 34.171875 -17.265625 C 35.441406 -15.660156 36.078125 -13.628906 36.078125 -11.171875 C 36.078125 -7.617188 34.875 -4.867188 32.46875 -2.921875 C 30.070312 -0.972656 26.738281 0 22.46875 0 Z M 11.34375 -23.03125 L 20.59375 -23.03125 C 25.550781 -23.03125 28.03125 -24.941406 28.03125 -28.765625 C 28.03125 -32.585938 25.550781 -34.5 20.59375 -34.5 L 11.34375 -34.5 Z M 11.34375 -5.5 L 21.5625 -5.5 C 26.550781 -5.5 29.046875 -7.503906 29.046875 -11.515625 C 29.046875 -15.523438 26.550781 -17.53125 21.5625 -17.53125 L 11.34375 -17.53125 Z M 11.34375 -5.5 "/></g></g></g><g fill="#000000" fill-opacity="1"><g transform="translate(187.207361, 286.349093)"><g><path d="M 18.15625 0.5625 C 15.625 0.5625 13.15625 0.28125 10.75 -0.28125 C 8.351562 -0.851562 6.265625 -1.707031 4.484375 -2.84375 C 3.609375 -3.40625 3.078125 -4.101562 2.890625 -4.9375 C 2.703125 -5.769531 2.769531 -6.550781 3.09375 -7.28125 C 3.414062 -8.019531 3.925781 -8.53125 4.625 -8.8125 C 5.320312 -9.101562 6.125 -8.960938 7.03125 -8.390625 C 8.695312 -7.410156 10.457031 -6.691406 12.3125 -6.234375 C 14.164062 -5.785156 16.113281 -5.5625 18.15625 -5.5625 C 21.144531 -5.5625 23.316406 -6.0625 24.671875 -7.0625 C 26.035156 -8.0625 26.71875 -9.359375 26.71875 -10.953125 C 26.71875 -12.273438 26.234375 -13.3125 25.265625 -14.0625 C 24.304688 -14.820312 22.65625 -15.445312 20.3125 -15.9375 L 14.0625 -17.25 C 6.957031 -18.757812 3.40625 -22.410156 3.40625 -28.203125 C 3.40625 -30.691406 4.066406 -32.863281 5.390625 -34.71875 C 6.710938 -36.570312 8.546875 -38.007812 10.890625 -39.03125 C 13.234375 -40.050781 15.9375 -40.5625 19 -40.5625 C 21.269531 -40.5625 23.425781 -40.273438 25.46875 -39.703125 C 27.507812 -39.140625 29.347656 -38.3125 30.984375 -37.21875 C 31.734375 -36.6875 32.179688 -36.03125 32.328125 -35.25 C 32.484375 -34.476562 32.390625 -33.757812 32.046875 -33.09375 C 31.710938 -32.4375 31.175781 -31.984375 30.4375 -31.734375 C 29.695312 -31.492188 28.835938 -31.65625 27.859375 -32.21875 C 26.453125 -33.019531 25.03125 -33.585938 23.59375 -33.921875 C 22.164062 -34.265625 20.617188 -34.4375 18.953125 -34.4375 C 16.335938 -34.4375 14.289062 -33.882812 12.8125 -32.78125 C 11.34375 -31.6875 10.609375 -30.253906 10.609375 -28.484375 C 10.609375 -27.117188 11.0625 -26.03125 11.96875 -25.21875 C 12.875 -24.40625 14.425781 -23.769531 16.625 -23.3125 L 22.8125 -22.015625 C 26.550781 -21.222656 29.335938 -19.972656 31.171875 -18.265625 C 33.003906 -16.566406 33.921875 -14.296875 33.921875 -11.453125 C 33.921875 -9.078125 33.273438 -6.976562 31.984375 -5.15625 C 30.703125 -3.34375 28.878906 -1.9375 26.515625 -0.9375 C 24.160156 0.0625 21.375 0.5625 18.15625 0.5625 Z M 18.15625 0.5625 "/></g></g></g><g fill="#000000" fill-opacity="1"><g transform="translate(225.833584, 286.349093)"><g><path d="M 8.0625 0 C 5.601562 0 4.375 -1.25 4.375 -3.75 L 4.375 -36.484375 C 4.375 -38.941406 5.582031 -40.171875 8 -40.171875 C 10.414062 -40.171875 11.625 -38.941406 11.625 -36.484375 L 11.625 -6.1875 L 28.078125 -6.1875 C 30.203125 -6.1875 31.265625 -5.164062 31.265625 -3.125 C 31.265625 -1.039062 30.203125 0 28.078125 0 Z M 8.0625 0 "/></g></g></g><g fill="#000000" fill-opacity="1"><g transform="translate(260.546268, 286.349093)"><g><path d="M 17.53125 0.453125 C 15.113281 0.453125 13.90625 -0.8125 13.90625 -3.34375 L 13.90625 -18.375 L 1.765625 -35.453125 C 1.265625 -36.140625 1.039062 -36.867188 1.09375 -37.640625 C 1.15625 -38.421875 1.46875 -39.082031 2.03125 -39.625 C 2.601562 -40.175781 3.398438 -40.453125 4.421875 -40.453125 C 5.898438 -40.453125 7.1875 -39.675781 8.28125 -38.125 L 17.640625 -24.84375 L 27.0625 -38.125 C 27.664062 -38.957031 28.25 -39.550781 28.8125 -39.90625 C 29.382812 -40.269531 30.085938 -40.453125 30.921875 -40.453125 C 32.398438 -40.453125 33.375 -39.910156 33.84375 -38.828125 C 34.3125 -37.753906 34.113281 -36.613281 33.25 -35.40625 L 21.15625 -18.328125 L 21.15625 -3.34375 C 21.15625 -0.8125 19.945312 0.453125 17.53125 0.453125 Z M 17.53125 0.453125 "/></g></g></g></svg>