<svg xmlns="http://www.w3.org/2000/svg" xmlns:xlink="http://www.w3.org/1999/xlink" width="500" zoomAndPan="magnify" viewBox="0 0 375 374.999991" height="500" preserveAspectRatio="xMidYMid meet" version="1.0"><defs><clipPath id="59a97d51f8"><path d="M 0 56.25 L 374 56.25 L 374 318.75 L 0 318.75 Z M 0 56.25 " clip-rule="nonzero"/></clipPath><clipPath id="deed230bbd"><path d="M 298 56.25 L 374 56.25 L 374 133 L 298 133 Z M 298 56.25 " clip-rule="nonzero"/></clipPath></defs><g clip-path="url(#59a97d51f8)"><path fill="#28afb0" d="M 343.207031 168.8125 C 358.109375 171.722656 372.765625 184.515625 373.898438 203.765625 C 374.902344 220.792969 364.589844 235.9375 348.859375 241.539062 C 344.769531 242.992188 340.554688 243.636719 336.203125 243.695312 C 329.996094 243.792969 324.023438 245.101562 318.617188 248.253906 C 307.09375 254.996094 300.585938 264.929688 299.667969 278.394531 C 299.425781 282.015625 299.238281 285.703125 298.417969 289.21875 C 294.117188 307.570312 277.496094 318.707031 260.605469 318.1875 C 241.726562 317.613281 225.839844 302.800781 224.296875 283.96875 C 224.113281 281.65625 223.964844 279.34375 223.789062 277.039062 C 222.425781 259.300781 207.894531 246.203125 193.382812 244.332031 C 191.140625 244.039062 188.886719 243.832031 186.632812 243.707031 C 180.472656 243.8125 174.550781 245.128906 169.195312 248.261719 C 157.667969 255.003906 151.160156 264.941406 150.242188 278.40625 C 150 282.027344 149.816406 285.714844 148.996094 289.226562 C 144.683594 307.570312 128.0625 318.707031 111.171875 318.1875 C 92.292969 317.613281 76.40625 302.800781 74.863281 283.96875 C 74.679688 281.65625 74.53125 279.34375 74.355469 277.039062 C 72.988281 259.300781 58.460938 246.203125 43.949219 244.332031 C 41.335938 243.988281 38.691406 243.765625 36.054688 243.636719 C 19.664062 242.875 5.660156 231.566406 1.414062 215.679688 C 0.332031 211.632812 0.175781 207.511719 0.175781 203.375 C 0.175781 188.210938 0.0664062 132.914062 -0.0078125 94.703125 C -0.046875 73.722656 17.039062 56.734375 38.027344 56.910156 C 58.703125 57.074219 75.398438 73.867188 75.4375 94.546875 C 75.515625 132.511719 75.644531 187.871094 75.683594 202.996094 C 75.683594 206.460938 75.742188 210 76.425781 213.367188 C 79.800781 230.25 94.652344 242.449219 111.757812 242.632812 C 129.324219 242.816406 144.351562 231.078125 148.136719 214.050781 C 148.78125 211.164062 148.847656 208.148438 149.171875 205.191406 C 149.355469 203.433594 149.394531 201.648438 149.621094 199.902344 C 149.601562 181.070312 149.511719 130.414062 149.433594 94.691406 C 149.394531 73.710938 166.480469 56.722656 187.472656 56.898438 C 208.148438 57.066406 224.84375 73.859375 224.882812 94.535156 C 224.960938 132.503906 225.085938 187.859375 225.125 202.984375 C 225.125 206.449219 225.183594 209.992188 225.867188 213.359375 C 229.246094 230.238281 244.097656 242.4375 261.203125 242.621094 C 278.765625 242.808594 293.792969 231.070312 297.578125 214.042969 C 298.222656 211.152344 298.292969 208.136719 298.613281 205.179688 C 298.859375 202.878906 298.847656 200.527344 299.347656 198.28125 C 304.410156 175.203125 326.257812 165.484375 343.238281 168.804688 Z M 343.207031 168.8125 " fill-opacity="1" fill-rule="nonzero"/></g><g clip-path="url(#deed230bbd)"><path fill="#28afb0" d="M 337.179688 132.398438 C 316.628906 132.835938 298.828125 116.453125 298.625 95.296875 C 298.125 75.125 313.992188 57.503906 335.390625 56.910156 C 356.3125 56.332031 373.671875 72.910156 373.964844 94.007812 C 374.289062 116.921875 355.84375 131.988281 337.167969 132.398438 Z M 337.179688 132.398438 " fill-opacity="1" fill-rule="nonzero"/></g></svg>