<svg xmlns="http://www.w3.org/2000/svg" xmlns:xlink="http://www.w3.org/1999/xlink" width="531" zoomAndPan="magnify" viewBox="0 0 398.25 144.75" height="193" preserveAspectRatio="xMidYMid meet" version="1.0"><defs><g/><clipPath id="2761bd8ed7"><path d="M 0 19.503906 L 150 19.503906 L 150 124.253906 L 0 124.253906 Z M 0 19.503906 " clip-rule="nonzero"/></clipPath><clipPath id="3dddbb8b51"><path d="M 119 19.503906 L 150 19.503906 L 150 50 L 119 50 Z M 119 19.503906 " clip-rule="nonzero"/></clipPath></defs><g clip-path="url(#2761bd8ed7)"><path fill="#28afb0" d="M 136.953125 64.421875 C 142.898438 65.582031 148.75 70.6875 149.199219 78.371094 C 149.601562 85.164062 145.484375 91.207031 139.207031 93.441406 C 137.578125 94.023438 135.894531 94.28125 134.160156 94.304688 C 131.683594 94.339844 129.296875 94.863281 127.140625 96.121094 C 122.542969 98.8125 119.945312 102.777344 119.578125 108.148438 C 119.480469 109.59375 119.410156 111.066406 119.082031 112.46875 C 117.363281 119.792969 110.734375 124.234375 103.992188 124.027344 C 96.457031 123.796875 90.117188 117.886719 89.503906 110.371094 C 89.429688 109.449219 89.371094 108.527344 89.300781 107.609375 C 88.757812 100.527344 82.957031 95.304688 77.167969 94.554688 C 76.273438 94.4375 75.371094 94.355469 74.472656 94.308594 C 72.015625 94.347656 69.652344 94.875 67.515625 96.125 C 62.917969 98.816406 60.320312 102.78125 59.953125 108.152344 C 59.855469 109.597656 59.78125 111.070312 59.453125 112.472656 C 57.734375 119.792969 51.101562 124.234375 44.363281 124.027344 C 36.828125 123.796875 30.488281 117.886719 29.875 110.371094 C 29.800781 109.449219 29.742188 108.527344 29.671875 107.609375 C 29.125 100.527344 23.328125 95.304688 17.539062 94.554688 C 16.496094 94.417969 15.4375 94.332031 14.386719 94.28125 C 7.847656 93.976562 2.257812 89.460938 0.566406 83.125 C 0.132812 81.507812 0.0703125 79.863281 0.0703125 78.214844 C 0.0703125 72.164062 0.0273438 50.097656 -0.00390625 34.847656 C -0.0195312 26.476562 6.796875 19.695312 15.175781 19.765625 C 23.425781 19.832031 30.085938 26.535156 30.101562 34.785156 C 30.132812 49.9375 30.183594 72.027344 30.199219 78.0625 C 30.199219 79.445312 30.222656 80.859375 30.496094 82.199219 C 31.84375 88.9375 37.769531 93.804688 44.597656 93.878906 C 51.605469 93.953125 57.601562 89.269531 59.113281 82.472656 C 59.371094 81.320312 59.398438 80.117188 59.523438 78.9375 C 59.597656 78.238281 59.613281 77.523438 59.703125 76.828125 C 59.695312 69.3125 59.660156 49.097656 59.628906 34.84375 C 59.613281 26.472656 66.433594 19.691406 74.808594 19.761719 C 83.058594 19.828125 89.722656 26.53125 89.738281 34.78125 C 89.769531 49.933594 89.820312 72.023438 89.835938 78.058594 C 89.835938 79.441406 89.859375 80.855469 90.128906 82.195312 C 91.476562 88.933594 97.40625 93.800781 104.230469 93.875 C 111.238281 93.949219 117.234375 89.265625 118.746094 82.46875 C 119.003906 81.316406 119.03125 80.113281 119.160156 78.933594 C 119.257812 78.015625 119.253906 77.078125 119.453125 76.179688 C 121.472656 66.972656 130.191406 63.09375 136.964844 64.417969 Z M 136.953125 64.421875 " fill-opacity="1" fill-rule="nonzero"/></g><g clip-path="url(#3dddbb8b51)"><path fill="#28afb0" d="M 134.546875 49.890625 C 126.347656 50.066406 119.246094 43.527344 119.164062 35.085938 C 118.964844 27.035156 125.296875 20.003906 133.835938 19.765625 C 142.183594 19.539062 149.109375 26.152344 149.226562 34.570312 C 149.355469 43.714844 141.996094 49.726562 134.542969 49.890625 Z M 134.546875 49.890625 " fill-opacity="1" fill-rule="nonzero"/></g><g fill="#28afb0" fill-opacity="1"><g transform="translate(154.369805, 98.512361)"><g><path d="M 11.921875 0 C 8.191406 0 6.328125 -1.863281 6.328125 -5.59375 L 6.328125 -52.390625 C 6.328125 -56.109375 8.191406 -57.96875 11.921875 -57.96875 L 31.65625 -57.96875 C 37.738281 -57.96875 42.453125 -56.640625 45.796875 -53.984375 C 49.148438 -51.328125 50.828125 -47.640625 50.828125 -42.921875 C 50.828125 -39.796875 50.03125 -37.109375 48.4375 -34.859375 C 46.84375 -32.617188 44.648438 -30.976562 41.859375 -29.9375 C 45.148438 -29 47.710938 -27.363281 49.546875 -25.03125 C 51.378906 -22.707031 52.296875 -19.765625 52.296875 -16.203125 C 52.296875 -11.046875 50.554688 -7.054688 47.078125 -4.234375 C 43.597656 -1.410156 38.757812 0 32.5625 0 Z M 16.453125 -33.390625 L 29.84375 -33.390625 C 37.03125 -33.390625 40.625 -36.15625 40.625 -41.6875 C 40.625 -47.226562 37.03125 -50 29.84375 -50 L 16.453125 -50 Z M 16.453125 -7.984375 L 31.25 -7.984375 C 38.488281 -7.984375 42.109375 -10.882812 42.109375 -16.6875 C 42.109375 -22.5 38.488281 -25.40625 31.25 -25.40625 L 16.453125 -25.40625 Z M 16.453125 -7.984375 "/></g></g></g><g fill="#28afb0" fill-opacity="1"><g transform="translate(215.04933, 98.512361)"><g><path d="M 26.3125 0.828125 C 22.644531 0.828125 19.066406 0.414062 15.578125 -0.40625 C 12.097656 -1.226562 9.070312 -2.460938 6.5 -4.109375 C 5.238281 -4.929688 4.46875 -5.945312 4.1875 -7.15625 C 3.914062 -8.363281 4.015625 -9.5 4.484375 -10.5625 C 4.953125 -11.632812 5.691406 -12.375 6.703125 -12.78125 C 7.710938 -13.195312 8.878906 -12.992188 10.203125 -12.171875 C 12.609375 -10.742188 15.15625 -9.703125 17.84375 -9.046875 C 20.53125 -8.390625 23.351562 -8.0625 26.3125 -8.0625 C 30.644531 -8.0625 33.796875 -8.785156 35.765625 -10.234375 C 37.742188 -11.691406 38.734375 -13.570312 38.734375 -15.875 C 38.734375 -17.789062 38.03125 -19.296875 36.625 -20.390625 C 35.226562 -21.484375 32.832031 -22.390625 29.4375 -23.109375 L 20.390625 -25 C 10.085938 -27.1875 4.9375 -32.476562 4.9375 -40.875 C 4.9375 -44.488281 5.894531 -47.640625 7.8125 -50.328125 C 9.726562 -53.015625 12.382812 -55.097656 15.78125 -56.578125 C 19.1875 -58.054688 23.109375 -58.796875 27.546875 -58.796875 C 30.835938 -58.796875 33.960938 -58.382812 36.921875 -57.5625 C 39.878906 -56.738281 42.539062 -55.535156 44.90625 -53.953125 C 46 -53.179688 46.65625 -52.234375 46.875 -51.109375 C 47.09375 -49.984375 46.953125 -48.941406 46.453125 -47.984375 C 45.960938 -47.023438 45.179688 -46.363281 44.109375 -46 C 43.046875 -45.644531 41.800781 -45.878906 40.375 -46.703125 C 38.34375 -47.859375 36.285156 -48.679688 34.203125 -49.171875 C 32.117188 -49.671875 29.875 -49.921875 27.46875 -49.921875 C 23.6875 -49.921875 20.722656 -49.125 18.578125 -47.53125 C 16.441406 -45.9375 15.375 -43.851562 15.375 -41.28125 C 15.375 -39.3125 16.03125 -37.734375 17.34375 -36.546875 C 18.664062 -35.367188 20.914062 -34.453125 24.09375 -33.796875 L 33.0625 -31.90625 C 38.488281 -30.757812 42.53125 -28.953125 45.1875 -26.484375 C 47.84375 -24.015625 49.171875 -20.722656 49.171875 -16.609375 C 49.171875 -13.160156 48.238281 -10.117188 46.375 -7.484375 C 44.507812 -4.847656 41.863281 -2.800781 38.4375 -1.34375 C 35.019531 0.101562 30.976562 0.828125 26.3125 0.828125 Z M 26.3125 0.828125 "/></g></g></g><g fill="#28afb0" fill-opacity="1"><g transform="translate(271.042299, 98.512361)"><g><path d="M 11.671875 0 C 8.109375 0 6.328125 -1.804688 6.328125 -5.421875 L 6.328125 -52.875 C 6.328125 -56.4375 8.082031 -58.21875 11.59375 -58.21875 C 15.101562 -58.21875 16.859375 -56.4375 16.859375 -52.875 L 16.859375 -8.96875 L 40.703125 -8.96875 C 43.773438 -8.96875 45.3125 -7.484375 45.3125 -4.515625 C 45.3125 -1.503906 43.773438 0 40.703125 0 Z M 11.671875 0 "/></g></g></g><g fill="#28afb0" fill-opacity="1"><g transform="translate(321.362084, 98.512361)"><g><path d="M 25.40625 0.65625 C 21.894531 0.65625 20.140625 -1.179688 20.140625 -4.859375 L 20.140625 -26.640625 L 2.546875 -51.390625 C 1.835938 -52.378906 1.523438 -53.4375 1.609375 -54.5625 C 1.691406 -55.6875 2.140625 -56.644531 2.953125 -57.4375 C 3.773438 -58.238281 4.929688 -58.640625 6.421875 -58.640625 C 8.554688 -58.640625 10.414062 -57.515625 12 -55.265625 L 25.578125 -36.015625 L 39.21875 -55.265625 C 40.101562 -56.472656 40.957031 -57.335938 41.78125 -57.859375 C 42.601562 -58.378906 43.613281 -58.640625 44.8125 -58.640625 C 46.957031 -58.640625 48.367188 -57.859375 49.046875 -56.296875 C 49.734375 -54.734375 49.445312 -53.070312 48.1875 -51.3125 L 30.671875 -26.5625 L 30.671875 -4.859375 C 30.671875 -1.179688 28.914062 0.65625 25.40625 0.65625 Z M 25.40625 0.65625 "/></g></g></g></svg>